<svg width="1240" height="40" viewBox="0 0 1240 40" fill="none" xmlns="http://www.w3.org/2000/svg">
<g clip-path="url(#clip0_856_166)">
<mask id="mask0_856_166" style="mask-type:luminance" maskUnits="userSpaceOnUse" x="52" y="0" width="121" height="33">
<path d="M173 0H52V33H173V0Z" fill="white"/>
</mask>
<g mask="url(#mask0_856_166)">
<path d="M101.293 7.18767C101.23 8.14849 100.757 9.1049 99.6719 9.66023C98.4804 10.2685 97.3308 9.61836 97.1956 8.30936C97.0796 7.17151 97.8156 5.88235 98.8484 5.41957C100.135 4.84514 101.29 5.57677 101.293 7.18767Z" fill="#595959"/>
<path d="M171.274 18.3342C170.718 17.5894 170.47 17.5571 169.82 18.2292C169.028 19.046 168.165 19.7696 167.176 20.3381C165.527 21.285 163.405 21.2762 162.192 20.2999C161.752 19.9459 161.261 19.5272 161.449 18.8969C161.634 18.2843 162.256 18.4804 162.721 18.4422C165.32 18.2262 167.564 17.3558 168.961 15.0265C170.756 12.036 169.067 8.37128 165.751 8.12447C164.005 7.99519 162.456 8.60781 161.144 9.77725C159.157 11.549 158.267 13.8321 157.909 16.3847C157.607 18.5135 156.256 19.9694 154.535 21.0822C153.541 21.7265 152.764 21.1645 152.836 19.9657C152.889 19.0732 153.063 18.1954 153.281 17.3249C154.116 14.0062 155.08 10.7204 156.035 7.43324C156.642 5.34854 157.265 3.26824 157.883 1.18721C157.997 0.801565 158.077 0.420324 157.628 0.182324C156.564 -0.383293 154.973 0.253577 154.651 1.37085C153.542 5.20016 152.37 9.01109 151.361 12.8646C150.935 14.4888 149.951 14.8994 148.522 15.0713C147.669 15.1763 147.41 14.9295 147.287 14.0972C147.229 13.7197 147.194 13.3362 147.124 12.9594C146.543 9.73831 143.877 8.49102 140.985 10.0814C140.63 10.2775 140.266 10.5904 139.853 10.2606C139.448 9.93885 139.639 9.51354 139.762 9.12716C140.425 7.03143 141.088 4.93645 141.766 2.84734C142.349 1.04838 142.301 0.969781 140.42 1.00724C139.19 1.03148 139.104 1.09098 138.763 2.27217C137.677 6.05372 136.597 9.83528 135.512 13.6183C135.052 15.2292 134.234 15.8844 132.556 15.9851C131.725 16.0358 131.411 15.7831 131.359 14.967C131.292 13.9584 131.057 13.0013 130.559 12.1154C129.756 10.6852 128.314 10.0373 126.701 10.3678C126.057 10.5001 125.485 10.7887 124.91 11.0782C124.576 11.2456 124.227 11.3815 123.899 11.0936C123.59 10.8262 123.701 10.489 123.803 10.168C124.141 9.0963 124.484 8.0253 124.824 6.95504C125.237 5.66367 125.667 4.38038 126.057 3.08313C126.36 2.0753 126.124 1.80278 125.088 1.88138C124.806 1.90195 124.519 1.94382 124.238 1.92398C123.498 1.86889 123.121 2.18402 122.917 2.90169C121.774 6.9308 120.526 10.932 119.499 14.9941C119.328 15.6773 118.966 16.1202 118.342 16.4192C117.819 16.669 117.277 16.8122 116.709 16.8673C115.816 16.9532 115.456 16.6668 115.416 15.7801C115.373 14.8179 115.146 13.9158 114.688 13.0659C113.866 11.5454 112.325 10.8725 110.643 11.2985C110.008 11.4594 109.431 11.7393 108.878 12.072C108.62 12.2263 108.353 12.3078 108.084 12.1088C107.821 11.917 107.782 11.6401 107.841 11.3514C107.893 11.1017 107.967 10.8571 108.044 10.6132C108.717 8.49469 109.403 6.37987 110.062 4.25697C110.475 2.93255 110.251 2.67104 108.891 2.80032C108.685 2.82016 108.478 2.84734 108.272 2.83852C107.569 2.80693 107.185 3.13602 106.993 3.8008C105.616 8.56301 104.241 13.323 103.006 18.1227C102.399 20.4718 100.994 22.3501 99.1755 23.9324C98.7259 24.3224 98.1529 24.6574 97.5469 24.3217C96.9475 23.9889 96.9549 23.341 97.0107 22.7504C97.101 21.8095 97.2619 20.878 97.4918 19.9591C98.0435 17.7524 98.7274 15.5825 99.39 13.4075C99.6529 12.5451 99.4252 12.266 98.5276 12.299C98.1662 12.3115 97.8048 12.3409 97.4426 12.338C96.8109 12.3343 96.4495 12.6164 96.2827 13.2334C95.7965 15.0331 95.2389 16.8144 94.7761 18.6207C94.2237 20.7759 92.9214 22.475 91.45 24.0616C90.9586 24.5913 90.3122 25.2127 89.4961 24.7588C88.7145 24.3224 88.8614 23.4916 88.9885 22.7534C89.4601 20.0179 90.5054 17.4557 91.4324 14.8575C91.8379 13.7197 91.6344 13.4405 90.3996 13.4354C89.1082 13.4288 87.8168 13.4141 86.5247 13.3766C85.8849 13.3583 85.3619 13.1577 85.2613 12.4041C85.2055 11.9861 84.9065 11.8047 84.4826 11.8274C84.1484 11.8465 83.8127 11.8759 83.477 11.8781C82.857 11.8796 82.5404 12.1932 82.4207 12.7787C81.4562 17.5438 79.8703 22.0835 77.361 26.2852C77.2126 26.5349 77.0775 26.8141 77.278 27.0726C77.6945 27.6096 78.2271 28.0768 78.8933 28.187C79.5243 28.2891 79.6962 27.6361 79.9452 27.2137C81.6545 24.307 82.8592 21.1843 83.892 17.9949C84.5568 15.9373 84.5487 15.9366 86.7069 16.1922C87.5487 16.2914 87.7867 16.644 87.5113 17.4483C87.1638 18.4642 86.7745 19.4655 86.4292 20.4806C85.9349 21.9446 85.655 23.4409 85.7667 24.9968C85.9327 27.3018 87.9997 28.6218 90.191 27.819C91.2201 27.4421 91.9686 26.7083 92.7171 25.9612C93.5156 25.1613 93.7867 25.201 94.3266 26.1574C94.9466 27.2592 96.044 27.7756 97.4022 27.5949C98.4328 27.4583 99.3327 27.0256 100.08 26.319C100.659 25.7725 101.217 25.2032 101.746 24.6111C102.444 23.8332 102.731 23.8464 103.277 24.772C104.176 26.2962 105.529 27.019 107.299 27.0638C109.044 27.1101 110.456 26.3777 111.686 25.2539C113.141 23.9213 114.062 22.2487 114.706 20.4131C114.854 19.9921 115.011 19.569 115.556 19.5463C116.231 19.5198 116.89 19.4162 117.552 19.298C118.133 19.1937 118.439 19.4787 118.47 20.045C118.493 20.4784 118.476 20.9133 118.499 21.3474C118.714 25.3067 122.267 27.3459 125.859 25.558C128.089 24.4473 129.414 22.5308 130.255 20.3161C130.699 19.1503 131.193 18.3651 132.583 18.5597C132.706 18.5766 132.837 18.5215 132.964 18.498C134.176 18.2821 134.312 18.3923 134.33 19.6131C134.344 20.5644 134.477 21.4943 134.81 22.392C135.351 23.853 136.419 24.7411 137.914 25.129C139.917 25.6468 141.634 25.0114 143.153 23.7421C144.484 22.6314 145.53 21.2593 146.057 19.6462C146.534 18.191 147.296 17.4505 148.858 17.6011C148.907 17.6077 148.958 17.5857 149.009 17.5813C149.805 17.4998 150.072 17.7422 149.992 18.5223C149.919 19.2319 149.77 19.9348 149.812 20.5578C149.812 20.8332 149.811 21.0125 149.812 21.1902C149.829 24.4657 152.285 24.8689 154.347 24.1571C154.73 24.0249 155.088 23.7957 155.426 23.5658C156.199 23.0399 156.837 22.3714 157.425 21.6559C158.144 20.7781 158.382 20.7693 159.074 21.6332C159.943 22.7203 161.06 23.4248 162.436 23.6628C165.895 24.2629 168.716 23.0303 171.112 20.6378C172.142 19.6124 172.146 19.5022 171.274 18.3342ZM112.135 17.712C111.825 19.7218 111.125 21.5634 109.625 23.0244C109.351 23.2896 109.036 23.5298 108.698 23.7061C107.346 24.4062 106.044 23.7546 105.816 22.273C105.757 21.8961 105.767 21.5105 105.74 21.0661C105.88 18.9549 106.464 16.9584 107.981 15.31C108.385 14.8707 108.865 14.5226 109.429 14.3095C110.75 13.8086 111.814 14.3837 112.14 15.7353C112.299 16.4001 112.235 17.0598 112.135 17.712ZM128.133 15.9204C127.974 18.1352 127.283 20.153 125.809 21.866C125.562 22.154 125.26 22.4125 124.938 22.619C123.393 23.607 121.884 23.0244 121.708 21.2247C121.429 18.368 122.248 15.8183 124.506 13.8747C125.188 13.2885 126.048 12.9315 126.941 13.3634C127.993 13.8688 128.145 14.8729 128.133 15.9204ZM143.946 15.9755C143.678 17.751 143.008 19.3553 141.892 20.7745C141.574 21.1785 141.209 21.5325 140.754 21.7911C139.098 22.7299 137.701 21.9931 137.567 20.1023C137.55 19.8739 137.563 19.644 137.563 19.4148C137.624 17.2948 138.215 15.3497 139.605 13.6969C140.193 12.9998 140.892 12.4364 141.855 12.3372C142.865 12.2351 143.524 12.6714 143.859 13.6345C144.128 14.4058 144.066 15.1866 143.946 15.9755ZM161.253 15.2145C161.546 13.9893 162.021 12.8345 162.918 11.9031C163.164 11.6475 163.456 11.4241 163.762 11.2434C164.679 10.6947 165.56 10.7013 166.131 11.2243C166.727 11.7701 166.859 12.8191 166.377 13.7123C165.486 15.3622 163.93 15.9425 162.378 16.1695C161.43 16.1731 161.097 15.8668 161.253 15.2145ZM78.0515 14.917C77.7481 21.0066 75.6957 26.2845 70.5868 30.0484C67.2651 32.4945 63.4453 33.2636 59.3678 32.9529C57.4998 32.8089 55.692 32.3968 53.9746 31.6453C52.8771 31.1649 52.7904 30.9078 53.2995 29.828C54.1428 28.0467 54.1428 28.0489 55.9175 28.8246C56.06 28.887 56.2025 28.9487 56.348 28.9987C57.2544 29.316 57.5806 29.1662 57.8266 28.256C58.3239 26.4057 58.7816 24.545 59.287 22.6968C60.3051 18.9784 61.3445 15.2615 62.3795 11.5476C62.6807 10.4677 62.7886 10.3958 63.9375 10.3539C64.2717 10.3421 64.6089 10.3201 64.9431 10.3069C65.782 10.2716 66.0362 10.5625 65.8062 11.3735C65.2788 13.2422 64.7169 15.0999 64.1836 16.9672C63.1111 20.726 62.1062 24.5031 61.1638 28.2957C60.8031 29.7435 61.1248 30.066 62.6623 29.9007C66.6194 29.4769 69.5805 27.4517 71.7122 24.2438C74.1289 20.6077 75.1022 16.6161 74.3294 12.2733C73.495 7.59411 69.651 4.84169 64.88 5.52043C62.6366 5.8407 60.604 6.66635 58.7838 8.0062C57.9405 8.62765 57.7818 8.59239 57.2221 7.71311C56.0255 5.83556 56.0064 5.80324 57.9581 4.63234C60.9581 2.83485 64.2218 1.90856 67.7293 2.31624C73.3936 2.97588 77.0562 6.71263 77.8671 12.4584C77.9817 13.2716 78.0632 14.084 78.0515 14.917Z" fill="#595959"/>
</g>
<path d="M278.609 15.6212C279.116 12.9843 281.448 11.1588 284.694 11.1588C288.446 11.1588 291.387 12.7814 291.387 17.8524V27.2843H288.142L287.736 25.2559C286.621 26.6758 285.099 27.5886 282.868 27.5886C280.13 27.5886 278 25.8644 278 22.7205C278 19.5765 280.84 17.5481 284.795 17.5481H287.432V16.8382C287.432 15.0127 286.113 14.5056 284.592 14.5056C283.477 14.5056 282.361 14.9112 281.854 16.3311L278.609 15.6212ZM283.781 24.2417C285.606 24.2417 287.432 23.0247 287.432 20.9964V20.6921H284.896C283.172 20.5907 282.158 21.3006 282.158 22.7205C282.158 23.4304 282.767 24.2417 283.781 24.2417Z" fill="#595959"/>
<path d="M355.078 15.6212C355.585 12.9843 357.918 11.1588 361.163 11.1588C364.916 11.1588 367.857 12.7814 367.857 17.8524V27.2843H364.612L364.206 25.2559C363.09 26.6758 361.569 27.5886 359.338 27.5886C356.6 27.5886 354.47 25.8644 354.47 22.7205C354.47 19.5765 357.309 17.5481 361.265 17.5481H363.902V16.8382C363.902 15.0127 362.583 14.5056 361.062 14.5056C359.946 14.5056 358.831 14.9112 358.324 16.3311L355.078 15.6212ZM360.251 24.2417C362.076 24.2417 363.902 23.0247 363.902 20.9964V20.6921H361.265C359.541 20.6921 358.527 21.3006 358.527 22.7205C358.628 23.4304 359.236 24.2417 360.251 24.2417Z" fill="#595959"/>
<path d="M371.406 27.3857V11.3616H375.362V13.9985C376.477 12.0715 378.303 11.1588 380.027 11.1588C380.737 11.1588 381.345 11.2602 381.954 11.463L381.244 15.1141C380.737 14.8098 380.23 14.607 379.621 14.607C377.289 14.607 375.362 16.5339 375.362 21.6049V27.2843L371.406 27.3857Z" fill="#595959"/>
<path d="M390.372 11.1588C391.994 11.1588 393.516 11.9701 394.226 12.8829V4.97223H398.181V27.3857H394.226V25.763C393.718 26.5744 392.299 27.69 390.372 27.69C385.605 27.69 383.171 24.3432 383.171 19.4751C383.171 14.607 385.605 11.1588 390.372 11.1588ZM390.98 24.2417C393.008 24.2417 394.631 22.5176 394.631 19.3736C394.631 16.2297 393.008 14.5056 390.98 14.5056C388.952 14.5056 387.329 16.2297 387.329 19.3736C387.329 22.5176 388.952 24.2417 390.98 24.2417Z" fill="#595959"/>
<path d="M412.38 13.6942L410.047 15.824C409.337 14.8098 408.222 14.4042 407.41 14.4042C406.599 14.4042 405.889 14.9113 405.889 15.7226C405.889 16.4325 406.497 16.9396 407.41 17.2439C409.641 18.0552 413.191 18.7652 413.191 22.112C413.191 25.0531 410.96 27.3857 407.512 27.3857C404.165 27.3857 401.934 25.0531 401.224 23.1262L404.368 21.402C404.976 22.9233 405.99 24.0389 407.613 24.0389C408.83 24.0389 409.641 23.4304 409.641 22.3148C409.641 20.9964 407.613 20.6921 405.686 19.8808C403.962 19.1708 402.441 18.0552 402.441 15.6212C402.441 13.1871 404.469 10.9559 407.512 10.9559C409.54 11.0574 411.467 12.173 412.38 13.6942Z" fill="#595959"/>
<path d="M330.636 11.3616L327.796 22.4162L325.058 11.3616H321.407L318.77 22.4162L316.539 16.0268L316.235 16.7367L315.018 20.8949L317.046 27.3857H320.494L323.232 17.041L325.971 27.3857H329.52L334.591 11.3616H330.636Z" fill="#595959"/>
<path d="M349.602 11.3616L346.762 22.4162L344.024 11.3616H340.373L337.736 22.4162L335.505 16.0268L335.2 16.7367L333.882 20.8949L336.012 27.3857H339.46L342.198 17.041L344.937 27.3857H348.385L353.557 11.3616H349.602Z" fill="#595959"/>
<path d="M315.626 11.3616L310.555 27.2843H307.107L304.369 17.041L301.631 27.3857H298.182L293.111 11.463H297.067L299.906 22.4162L302.645 11.463H306.296L309.034 22.4162L311.874 11.463L315.626 11.3616Z" fill="#595959"/>
<path d="M418.363 22.2134C419.885 22.2134 421 23.329 421 24.8503C421 26.3715 419.885 27.4871 418.363 27.4871C416.842 27.4871 415.727 26.3715 415.727 24.8503C415.727 23.329 416.842 22.2134 418.363 22.2134Z" fill="#595959"/>
<mask id="mask1_856_166" style="mask-type:luminance" maskUnits="userSpaceOnUse" x="526" y="0" width="109" height="33">
<path d="M635 0H526V33H635V0Z" fill="white"/>
</mask>
<g mask="url(#mask1_856_166)">
<path d="M535.374 7C536.305 7 537.164 7.07314 537.951 7.28832C538.737 7.43248 539.382 7.72081 539.954 8.08156C540.527 8.44161 540.956 8.94653 541.242 9.5956C541.529 10.244 541.672 11.0379 541.672 11.9029C541.672 12.912 541.458 13.777 540.956 14.4268C540.527 15.0744 539.811 15.6518 538.953 16.0843C540.169 16.445 541.1 17.0934 541.672 17.9583C542.244 18.824 542.603 19.9056 542.603 21.1313C542.603 22.1397 542.388 23.0054 542.029 23.7269C541.672 24.4477 541.099 25.0968 540.455 25.53C539.811 25.9632 539.024 26.3239 538.166 26.5398C537.307 26.755 536.448 26.8998 535.589 26.8998H526V7H535.374ZM534.802 15.0751C535.588 15.0751 536.233 14.8592 536.733 14.4985C537.235 14.1377 537.448 13.4887 537.448 12.6954C537.448 12.2629 537.378 11.8297 537.235 11.5421C537.091 11.2538 536.877 11.0372 536.591 10.8206C536.305 10.6765 536.018 10.533 535.66 10.4606C535.302 10.3881 534.945 10.3881 534.515 10.3881H530.365V15.0744L534.802 15.0751ZM535.017 23.5834C535.446 23.5834 535.875 23.511 536.233 23.4393C536.591 23.3668 536.949 23.2227 537.235 23.0061C537.521 22.7902 537.736 22.5736 537.951 22.2129C538.094 21.8528 538.237 21.4189 538.237 20.9147C538.237 19.9056 537.951 19.1841 537.378 18.6792C536.805 18.246 536.018 18.0308 535.088 18.0308H530.366V23.5827L535.017 23.5834ZM548.827 23.511C549.4 24.0884 550.258 24.376 551.404 24.376C552.191 24.376 552.906 24.1601 553.479 23.7993C554.052 23.3654 554.41 22.9337 554.552 22.5005H558.059C557.486 24.2311 556.628 25.4575 555.482 26.2501C554.337 26.9709 552.977 27.4041 551.332 27.4041C550.187 27.4041 549.185 27.1875 548.255 26.826C547.324 26.466 546.609 25.9617 545.965 25.2409C545.321 24.5926 544.82 23.7993 544.534 22.8612C544.176 21.9231 544.033 20.9147 544.033 19.7607C544.033 18.6799 544.176 17.6707 544.534 16.7319C544.892 15.7945 545.393 15.002 546.037 14.2812C546.681 13.6328 547.467 13.0555 548.327 12.6954C549.257 12.3347 550.187 12.1181 551.332 12.1181C552.549 12.1181 553.622 12.334 554.552 12.8389C555.483 13.3438 556.198 13.9204 556.771 14.7854C557.343 15.5786 557.773 16.5153 558.059 17.5252C558.202 18.535 558.273 19.5441 558.202 20.6974H547.825C547.825 21.8535 548.255 22.9344 548.827 23.511ZM553.335 15.9408C552.834 15.4359 552.047 15.1476 551.116 15.1476C550.473 15.1476 549.972 15.291 549.542 15.5076C549.113 15.7242 548.827 16.0118 548.54 16.3008C548.254 16.5899 548.111 16.9499 548.039 17.3107C547.967 17.6714 547.896 17.9583 547.896 18.2481H554.336C554.194 17.1665 553.836 16.4457 553.335 15.9408ZM563.782 7V14.4992H563.854C564.355 13.6335 564.999 13.0569 565.786 12.6961C566.573 12.3354 567.289 12.1188 568.075 12.1188C569.149 12.1188 570.008 12.2636 570.652 12.5513C571.296 12.8396 571.869 13.2728 572.227 13.777C572.584 14.2819 572.87 14.931 573.014 15.6518C573.157 16.3726 573.228 17.1665 573.228 18.1032V26.9716H569.292V18.8247C569.292 17.599 569.077 16.7333 568.72 16.1574C568.362 15.58 567.717 15.2917 566.788 15.2917C565.715 15.2917 564.927 15.6525 564.498 16.2305C563.997 16.8782 563.782 17.9598 563.782 19.4021V26.9723H559.847V7H563.782ZM576.091 14.6426C576.521 13.9943 577.021 13.5611 577.665 13.1279C578.309 12.7678 579.025 12.4802 579.812 12.3347C580.591 12.1912 581.381 12.1188 582.173 12.1188C582.889 12.1188 583.604 12.1912 584.392 12.2636C585.108 12.3354 585.823 12.5506 586.396 12.8403C587.039 13.1279 587.469 13.5611 587.899 14.066C588.256 14.5716 588.471 15.2924 588.471 16.1581V23.7283C588.471 24.3767 588.543 25.0265 588.614 25.6031C588.686 26.1805 588.899 26.6847 589.115 26.973H585.108C584.964 26.8281 584.893 26.5405 584.822 26.3253C584.75 26.108 584.75 25.8204 584.75 25.6038C584.107 26.2522 583.39 26.6854 582.532 26.9737C581.673 27.262 580.814 27.3337 579.956 27.3337C579.24 27.3337 578.667 27.262 578.023 27.0468C577.451 26.902 576.95 26.6129 576.449 26.2529C576.02 25.8921 575.662 25.4596 575.376 24.883C575.162 24.3057 575.018 23.729 575.018 22.9358C575.018 22.1418 575.162 21.421 575.448 20.9168C575.734 20.4126 576.091 19.9794 576.521 19.6194C576.95 19.3317 577.523 19.042 578.095 18.8986C578.668 18.7544 579.24 18.6109 579.885 18.5378L581.602 18.3219C582.174 18.2495 582.675 18.1778 583.105 18.106C583.534 17.9612 583.892 17.8177 584.178 17.6011C584.463 17.3845 584.535 17.0962 584.535 16.6637C584.535 16.2312 584.463 15.8705 584.321 15.6539C584.178 15.438 583.963 15.2214 583.748 15.0765C583.533 14.9324 583.247 14.8606 582.961 14.7889C582.675 14.7165 582.317 14.7165 581.959 14.7165C581.172 14.7165 580.599 14.8606 580.169 15.2214C579.74 15.5814 579.454 16.1588 579.383 16.8796H575.447C575.447 16.0125 575.733 15.22 576.091 14.6426ZM583.89 20.2663C583.677 20.3388 583.39 20.4112 583.103 20.4822C582.817 20.5554 582.53 20.5554 582.172 20.6271C581.887 20.6988 581.53 20.6988 581.242 20.7712L580.383 20.9871C580.097 21.0596 579.811 21.203 579.668 21.3479C579.454 21.4921 579.31 21.7079 579.167 21.9245C578.953 22.2129 578.953 22.5019 578.953 22.8626C578.953 23.2227 579.025 23.511 579.167 23.7276C579.311 23.9435 579.454 24.1608 579.669 24.3049C579.883 24.4491 580.169 24.5215 580.456 24.5933C580.742 24.6643 581.028 24.665 581.385 24.665C582.173 24.665 582.745 24.5215 583.175 24.3049C583.605 24.0173 583.89 23.7276 584.106 23.3676C584.32 23.0068 584.463 22.646 584.463 22.286C584.535 21.9252 584.535 21.6383 584.535 21.4203V19.907C584.32 20.0504 584.105 20.1953 583.89 20.2663ZM594.41 12.4802V14.4992H594.482C594.983 13.6335 595.627 13.0569 596.413 12.6961C597.202 12.3354 598.06 12.1188 598.846 12.1188C599.92 12.1188 600.778 12.2636 601.423 12.5513C602.138 12.8396 602.64 13.2728 602.998 13.777C603.355 14.2819 603.641 14.931 603.856 15.6518C603.999 16.3726 604.071 17.1665 604.071 18.1032V26.9716H600.135V18.8247C600.135 17.599 599.92 16.7333 599.562 16.1574C599.204 15.58 598.559 15.22 597.558 15.22C596.485 15.22 595.697 15.6525 595.197 16.3008C594.696 16.9499 594.481 18.0315 594.481 19.4731V27.044H590.546V12.4802H594.41ZM612.871 15.0751C612.228 15.0751 611.726 15.22 611.298 15.5083C610.868 15.7959 610.51 16.1567 610.225 16.6623C609.938 17.0948 609.795 17.5997 609.651 18.1763C609.508 18.7537 609.508 19.2572 609.508 19.8353C609.508 20.3395 609.58 20.9161 609.651 21.4203C609.795 21.9984 609.937 22.4302 610.225 22.8626C610.51 23.2958 610.797 23.6559 611.227 23.9435C611.656 24.2318 612.156 24.3767 612.8 24.3767C613.732 24.3767 614.447 24.0891 615.019 23.5834C615.521 23.0792 615.879 22.3584 615.95 21.4196H619.743C619.457 23.3668 618.742 24.8092 617.523 25.819C616.308 26.8274 614.734 27.3323 612.801 27.3323C611.727 27.3323 610.725 27.1164 609.867 26.7557C608.936 26.3949 608.221 25.89 607.577 25.2416C606.934 24.5933 606.432 23.8 606.074 22.9344C605.716 21.997 605.574 21.0596 605.574 19.9773C605.574 18.824 605.716 17.8142 606.074 16.8775C606.432 15.9401 606.862 15.0744 607.505 14.3536C608.149 13.6328 608.936 13.1279 609.795 12.6954C610.725 12.3347 611.726 12.1181 612.871 12.1181C613.731 12.1181 614.518 12.2629 615.304 12.4788C616.09 12.6947 616.807 13.0555 617.379 13.4879C618.023 13.9211 618.524 14.4978 618.882 15.2186C619.239 15.867 619.455 16.7319 619.525 17.67H615.662C615.52 15.9408 614.59 15.0751 612.871 15.0751ZM547.038 8.36988H555.052V10.3171H547.038V8.36988ZM625.681 23.511C626.254 24.0884 627.183 24.376 628.257 24.376C629.044 24.376 629.76 24.1601 630.332 23.7993C630.906 23.3654 631.263 22.9337 631.405 22.5005H634.841C634.268 24.2311 633.41 25.4575 632.264 26.2501C631.119 26.9709 629.76 27.4041 628.113 27.4041C626.968 27.4041 625.966 27.1875 625.036 26.826C624.156 26.4955 623.369 25.9512 622.747 25.2409C622.104 24.5926 621.602 23.7993 621.317 22.8612C620.959 21.9231 620.815 20.9147 620.815 19.7607C620.815 18.6799 620.959 17.6707 621.317 16.7319C621.66 15.8283 622.171 14.9964 622.819 14.2812C623.463 13.6328 624.25 13.0555 625.108 12.6954C626.039 12.3347 627.04 12.1181 628.114 12.1181C629.33 12.1181 630.403 12.334 631.262 12.8389C632.193 13.3438 632.908 13.9204 633.481 14.7854C634.054 15.5786 634.483 16.5153 634.769 17.5252C635.055 18.5343 635.127 19.6158 635.055 20.7698H624.679C624.678 21.8535 625.108 22.9344 625.681 23.511ZM630.26 15.9408C629.76 15.4359 628.972 15.1476 628.042 15.1476C627.398 15.1476 626.896 15.291 626.467 15.5076C626.037 15.7242 625.68 16.0118 625.466 16.3008C625.253 16.5899 625.036 16.9499 624.965 17.3107C624.894 17.6714 624.822 17.9583 624.822 18.2481H631.262C631.048 17.1665 630.69 16.4457 630.26 15.9408Z" fill="#595959"/>
</g>
<path d="M758.464 21.2197L748.732 11.596L758.464 1.97223H748.732L739 11.596L743.866 16.4619L748.732 21.2197L753.598 25.9775L758.464 21.2197Z" fill="#595959"/>
<path d="M765.384 16.4619L760.518 11.5959L755.652 6.83813L750.894 11.5959L760.518 21.2197L750.786 30.8434H760.518L765.384 26.0856L770.25 21.2197L765.384 16.4619Z" fill="#595959"/>
<path d="M782.361 11.596C780.955 11.596 779.766 12.0285 778.901 13.0017C778.036 13.9749 777.603 15.2724 777.603 17.0026C777.603 18.7327 778.036 20.0302 778.793 21.0034C779.658 21.9766 780.739 22.4092 782.253 22.4092C783.226 22.4092 784.199 22.1929 785.389 21.8685V23.2742C784.416 23.5986 783.334 23.8149 782.037 23.8149C780.09 23.8149 778.576 23.2742 777.495 22.0848C776.414 20.8953 775.873 19.1652 775.873 17.0026C775.873 15.5968 776.089 14.4074 776.63 13.4342C777.171 12.461 777.928 11.596 778.793 11.0553C779.658 10.5146 780.847 10.1902 782.253 10.1902C783.659 10.1902 784.848 10.4065 785.929 10.9472L785.281 12.2448C784.416 11.9204 783.442 11.596 782.361 11.596Z" fill="#595959"/>
<path d="M795.878 20.1384C795.878 21.3278 795.445 22.1929 794.58 22.8417C793.715 23.4904 792.634 23.8148 791.12 23.8148C789.498 23.8148 788.308 23.5986 787.443 23.166V21.6522C787.984 21.8685 788.633 22.0847 789.173 22.1929C789.714 22.301 790.471 22.4091 791.12 22.4091C792.201 22.4091 792.958 22.1929 793.391 21.8685C793.931 21.4359 794.147 20.8953 794.147 20.2465C794.147 19.814 794.039 19.3814 793.823 19.1652C793.607 18.8408 793.282 18.6245 792.85 18.3001C792.417 18.0839 791.769 17.7595 790.904 17.4351C789.714 17.0025 788.741 16.4619 788.308 15.8131C787.768 15.1643 787.551 14.4074 787.551 13.4342C787.551 12.461 787.984 11.5959 788.741 10.9471C789.498 10.2984 790.579 10.0821 791.769 10.0821C793.066 10.0821 794.256 10.2984 795.445 10.839L795.013 12.1366C793.931 11.7041 792.85 11.4878 791.769 11.4878C790.904 11.4878 790.363 11.7041 789.822 12.0285C789.39 12.3529 789.173 12.8935 789.173 13.5423C789.173 13.9748 789.282 14.4074 789.39 14.6236C789.606 14.948 789.822 15.1643 790.255 15.3806C790.687 15.5968 791.228 15.9212 792.093 16.2456C793.499 16.7863 794.472 17.3269 795.013 17.8676C795.661 18.5164 795.878 19.2733 795.878 20.1384Z" fill="#595959"/>
<path d="M806.15 20.1384C806.15 21.3278 805.718 22.1929 804.853 22.8417C803.988 23.4904 802.906 23.8148 801.392 23.8148C799.77 23.8148 798.581 23.5986 797.716 23.166V21.6522C798.257 21.8685 798.905 22.0847 799.446 22.1929C799.987 22.301 800.744 22.4091 801.392 22.4091C802.474 22.4091 803.231 22.1929 803.663 21.8685C804.204 21.4359 804.42 20.8953 804.42 20.2465C804.42 19.814 804.312 19.3814 804.096 19.1652C803.879 18.8408 803.555 18.6245 803.122 18.3001C802.69 18.0839 802.041 17.7595 801.176 17.4351C799.987 17.0025 799.013 16.4619 798.581 15.8131C798.04 15.1643 797.824 14.4074 797.824 13.4342C797.824 12.461 798.257 11.5959 799.013 10.9471C799.77 10.2984 800.852 10.0821 802.041 10.0821C803.339 10.0821 804.528 10.2984 805.718 10.839L805.285 12.1366C804.204 11.7041 803.122 11.4878 802.041 11.4878C801.176 11.4878 800.635 11.7041 800.095 12.0285C799.662 12.3529 799.446 12.8935 799.446 13.5423C799.446 13.9748 799.554 14.4074 799.662 14.6236C799.879 14.948 800.095 15.1643 800.527 15.3806C800.96 15.5968 801.5 15.9212 802.366 16.2456C803.771 16.7863 804.744 17.3269 805.285 17.8676C805.826 18.5164 806.15 19.2733 806.15 20.1384Z" fill="#595959"/>
<path d="M819.666 16.7863C819.666 18.9489 819.018 20.679 817.828 21.8685C816.639 23.0579 814.909 23.7067 812.638 23.7067H808.312V10.4065H812.854C815.017 10.4065 816.639 10.9472 817.828 12.0285C819.018 13.1098 819.666 14.7318 819.666 16.7863ZM815.99 16.8944C815.99 15.705 815.774 14.7318 815.233 14.1911C814.8 13.6504 814.043 13.3261 813.07 13.3261H811.989V20.7872H812.746C813.827 20.7872 814.584 20.4628 815.125 19.814C815.774 19.1652 815.99 18.192 815.99 16.8944Z" fill="#595959"/>
<path d="M826.803 23.923C825.073 23.923 823.775 23.4904 822.802 22.5172C821.829 21.6522 821.396 20.3546 821.396 18.6245C821.396 16.8944 821.829 15.5968 822.694 14.6236C823.559 13.6504 824.857 13.2179 826.479 13.2179C827.992 13.2179 829.182 13.6504 830.047 14.4073C830.912 15.1643 831.345 16.3537 831.345 17.8676V19.4895H824.965C824.965 20.0302 825.181 20.4627 825.614 20.8953C826.046 21.2197 826.587 21.4359 827.236 21.4359C827.884 21.4359 828.425 21.3278 828.966 21.2197C829.506 21.1115 830.047 20.8953 830.696 20.5709V23.166C830.155 23.4904 829.614 23.5986 828.966 23.7067C828.317 23.8148 827.668 23.923 826.803 23.923ZM826.587 15.7049C826.154 15.7049 825.83 15.8131 825.505 16.1375C825.181 16.3537 825.073 16.7862 824.965 17.3269H827.992C827.992 16.7862 827.884 16.4619 827.56 16.1375C827.452 15.8131 827.127 15.7049 826.587 15.7049Z" fill="#595959"/>
<path d="M841.293 20.5709C841.293 21.6522 840.968 22.5173 840.211 23.0579C839.455 23.5986 838.373 23.923 836.968 23.923C836.211 23.923 835.562 23.923 835.021 23.8149C834.481 23.7067 833.832 23.5986 833.291 23.3823V20.5709C833.832 20.7872 834.481 21.0034 835.129 21.2197C835.778 21.3278 836.319 21.436 836.859 21.436C837.616 21.436 838.049 21.2197 838.049 20.8953C838.049 20.679 837.941 20.5709 837.724 20.4628C837.508 20.3546 836.859 20.0303 835.886 19.5977C834.913 19.1652 834.264 18.7327 833.94 18.3001C833.615 17.7595 833.399 17.2188 833.399 16.4619C833.399 15.4887 833.724 14.7318 834.481 14.1911C835.237 13.6505 836.211 13.4342 837.616 13.4342C838.265 13.4342 838.914 13.5423 839.563 13.6505C840.211 13.7586 840.752 13.9749 841.401 14.2993L840.428 16.57C839.995 16.3538 839.455 16.1375 838.914 16.0294C838.373 15.9212 837.941 15.8131 837.616 15.8131C837.076 15.8131 836.751 15.9212 836.751 16.2456C836.751 16.4619 836.859 16.57 837.076 16.6782C837.292 16.7863 837.833 17.0026 838.806 17.4351C839.563 17.7595 840.103 17.9757 840.428 18.3001C840.752 18.6245 841.077 18.9489 841.185 19.2733C841.185 19.4896 841.293 20.0303 841.293 20.5709Z" fill="#595959"/>
<path d="M843.239 10.839C843.239 10.2984 843.347 9.86583 843.672 9.64957C843.996 9.4333 844.429 9.21704 845.077 9.21704C845.726 9.21704 846.267 9.32517 846.483 9.64957C846.808 9.86583 846.916 10.2984 846.916 10.839C846.916 11.9203 846.267 12.3529 844.969 12.3529C843.78 12.461 843.239 11.9203 843.239 10.839ZM846.808 23.7067H843.239V13.4342H846.808V23.7067Z" fill="#595959"/>
<path d="M859.026 13.4342V15.1643L857.621 15.7049C857.837 16.0293 857.945 16.4619 857.945 16.8944C857.945 17.9757 857.512 18.8408 856.756 19.4895C855.999 20.1383 854.809 20.3546 853.295 20.3546C852.863 20.3546 852.647 20.3546 852.43 20.2465C852.322 20.3546 852.322 20.5709 852.322 20.679C852.322 20.8953 852.43 21.0034 852.755 21.1115C853.079 21.2197 853.403 21.2197 853.836 21.2197H855.566C857.837 21.2197 859.026 22.1928 859.026 24.1392C859.026 25.4368 858.486 26.41 857.404 27.0588C856.323 27.7076 854.809 28.1401 852.863 28.1401C851.457 28.1401 850.268 27.9238 849.511 27.3832C848.754 26.9506 848.321 26.1937 848.321 25.3287C848.321 24.1392 849.078 23.2742 850.592 22.9498C850.268 22.8416 850.051 22.6254 849.727 22.301C849.511 21.9766 849.403 21.7603 849.403 21.4359C849.403 21.1115 849.511 20.7871 849.619 20.5709C849.835 20.3546 850.16 20.0302 850.7 19.7058C850.16 19.4895 849.727 19.057 849.403 18.6245C849.078 18.0838 848.97 17.5432 848.97 16.7862C848.97 15.7049 849.403 14.8399 850.16 14.1911C850.916 13.5423 851.998 13.2179 853.403 13.2179C853.62 13.2179 853.944 13.2179 854.377 13.326C854.809 13.326 855.134 13.4342 855.35 13.4342H859.026ZM851.241 25.0043C851.241 25.3287 851.349 25.5449 851.673 25.7612C851.998 25.9775 852.43 25.9775 852.971 25.9775C853.836 25.9775 854.485 25.8693 855.025 25.6531C855.566 25.4368 855.782 25.1124 855.782 24.788C855.782 24.4636 855.674 24.3555 855.35 24.2473C855.025 24.1392 854.593 24.0311 853.944 24.0311H852.538C852.106 24.0311 851.89 24.1392 851.565 24.2473C851.349 24.4636 851.241 24.6799 851.241 25.0043ZM852.322 16.7862C852.322 17.8676 852.647 18.4082 853.403 18.4082C853.728 18.4082 854.052 18.3001 854.16 17.9757C854.377 17.7594 854.485 17.3269 854.485 16.7862C854.485 15.7049 854.16 15.1643 853.403 15.1643C852.755 15.1643 852.322 15.7049 852.322 16.7862Z" fill="#595959"/>
<path d="M867.028 23.7067V18.0839C867.028 17.4351 866.92 16.8944 866.704 16.57C866.488 16.2456 866.163 16.0294 865.731 16.0294C865.082 16.0294 864.649 16.2456 864.433 16.7863C864.217 17.2188 864 18.0839 864 19.2733V23.8149H860.432V13.5423H863.135L863.568 14.8399H863.784C864.109 14.4074 864.541 13.9749 865.082 13.7586C865.622 13.5423 866.271 13.4342 866.92 13.4342C868.109 13.4342 868.975 13.7586 869.623 14.4074C870.272 15.0562 870.597 16.0294 870.597 17.2188V23.923H867.028V23.7067Z" fill="#595959"/>
<path d="M881.95 23.7067L880.328 19.4896H875.03L873.408 23.7067H871.894L877.193 10.4065H878.49L883.68 23.7067H881.95ZM879.788 18.0839L878.274 13.9748C878.058 13.4342 877.841 12.7854 877.625 12.0285C877.517 12.5691 877.301 13.2179 877.084 13.9748L875.571 18.0839H879.788Z" fill="#595959"/>
<path d="M893.304 23.7067L891.466 17.8676C891.358 17.5432 891.142 16.6781 890.817 15.4887H890.709C890.493 16.57 890.276 17.3269 890.06 17.9757L888.222 23.8148H886.492L883.789 13.8667H885.411C886.059 16.3537 886.492 18.3001 886.924 19.5977C887.249 20.8953 887.465 21.7603 887.465 22.1929H887.573C887.681 21.8685 887.789 21.4359 887.898 20.8953C888.006 20.3546 888.222 19.9221 888.33 19.5977L890.168 13.8667H891.79L893.52 19.5977C893.845 20.679 894.061 21.5441 894.169 22.1929H894.277C894.277 21.9766 894.385 21.6522 894.494 21.2197C894.602 20.7871 895.251 18.3001 896.332 13.8667H897.846L895.142 23.8148H893.304V23.7067Z" fill="#595959"/>
<path d="M905.739 23.7067L905.415 22.301H905.307C904.766 22.9498 904.334 23.3823 903.793 23.5986C903.252 23.8148 902.712 23.923 901.955 23.923C900.981 23.923 900.225 23.7067 899.684 23.166C899.143 22.6254 898.819 21.9766 898.819 21.0034C898.819 18.9489 900.441 17.9757 903.685 17.8676L905.415 17.7594V17.1107C905.415 16.3537 905.199 15.7049 904.874 15.3805C904.55 15.0561 904.009 14.8399 903.252 14.8399C902.387 14.8399 901.522 15.0561 900.441 15.5968L900.008 14.4074C900.549 14.1911 900.981 13.9748 901.63 13.7586C902.171 13.6504 902.82 13.5423 903.36 13.5423C904.55 13.5423 905.415 13.7586 905.956 14.2992C906.496 14.8399 906.821 15.7049 906.821 16.7863V23.5986H905.739V23.7067ZM902.279 22.6254C903.252 22.6254 903.901 22.4091 904.442 21.8685C904.982 21.3278 905.199 20.679 905.199 19.7058V18.8408L903.685 18.9489C902.495 18.9489 901.63 19.1652 901.09 19.4896C900.549 19.814 900.333 20.3546 900.333 21.0034C900.333 21.5441 900.549 21.9766 900.873 22.1929C901.306 22.5172 901.738 22.6254 902.279 22.6254Z" fill="#595959"/>
<path d="M914.498 13.5423C914.931 13.5423 915.363 13.5423 915.688 13.6504L915.471 15.0561C915.039 14.948 914.714 14.948 914.39 14.948C913.633 14.948 912.876 15.2724 912.335 15.9212C911.795 16.57 911.47 17.435 911.47 18.4082V23.7067H909.957V13.7586H911.146L911.362 15.5968H911.47C911.795 14.948 912.335 14.4074 912.768 14.083C913.309 13.7586 913.849 13.5423 914.498 13.5423Z" fill="#595959"/>
<path d="M924.338 22.4091C923.581 23.3823 922.5 23.923 921.094 23.923C919.797 23.923 918.824 23.4905 918.067 22.6254C917.31 21.7603 916.985 20.4628 916.985 18.8408C916.985 17.2188 917.31 15.9212 918.067 15.0562C918.824 14.1911 919.797 13.6505 921.094 13.6505C922.392 13.6505 923.473 14.1911 924.23 15.1643H924.338L924.23 14.4074V13.7586V9.54144H925.744V23.7067H924.555L924.338 22.4091ZM921.311 22.6254C922.392 22.6254 923.041 22.301 923.581 21.7603C924.014 21.2197 924.23 20.2465 924.23 19.057V18.7327C924.23 17.3269 924.014 16.3538 923.473 15.705C923.041 15.0562 922.284 14.8399 921.202 14.8399C920.337 14.8399 919.689 15.1643 919.148 15.9212C918.715 16.57 918.391 17.5432 918.391 18.8408C918.391 20.1384 918.607 21.1116 919.04 21.7603C919.689 22.301 920.337 22.6254 921.311 22.6254Z" fill="#595959"/>
<path d="M935.368 21.0034C935.368 21.9766 935.043 22.6254 934.286 23.166C933.638 23.7067 932.664 23.923 931.367 23.923C930.069 23.923 928.988 23.7067 928.231 23.2742V21.8685C928.663 22.0847 929.204 22.301 929.745 22.4091C930.285 22.5172 930.826 22.6254 931.367 22.6254C932.124 22.6254 932.772 22.5172 933.205 22.301C933.638 22.0847 933.854 21.6522 933.854 21.1115C933.854 20.679 933.638 20.3546 933.313 20.1383C932.989 19.8139 932.34 19.4896 931.367 19.1652C930.394 18.8408 929.745 18.5164 929.42 18.3001C928.988 18.0838 928.772 17.7594 928.555 17.435C928.339 17.1107 928.231 16.6781 928.231 16.2456C928.231 15.4887 928.555 14.8399 929.204 14.2992C929.853 13.7586 930.718 13.5423 931.907 13.5423C932.989 13.5423 934.07 13.7586 935.043 14.1911L934.503 15.3805C933.529 14.948 932.556 14.7317 931.799 14.7317C931.042 14.7317 930.502 14.8399 930.177 15.0561C929.853 15.2724 929.637 15.5968 929.637 16.0293C929.637 16.2456 929.745 16.57 929.853 16.6781C929.961 16.8944 930.177 17.0025 930.502 17.2188C930.826 17.435 931.367 17.6513 932.232 17.9757C933.421 18.4082 934.178 18.8408 934.611 19.2733C935.151 19.814 935.368 20.3546 935.368 21.0034Z" fill="#595959"/>
<mask id="mask2_856_166" style="mask-type:luminance" maskUnits="userSpaceOnUse" x="1040" y="0" width="121" height="33">
<path d="M1161 0H1040V33H1161V0Z" fill="white"/>
</mask>
<g mask="url(#mask2_856_166)">
<path d="M1089.29 7.18767C1089.23 8.14849 1088.76 9.1049 1087.67 9.66023C1086.48 10.2685 1085.33 9.61836 1085.2 8.30936C1085.08 7.17151 1085.82 5.88235 1086.85 5.41957C1088.13 4.84514 1089.29 5.57677 1089.29 7.18767Z" fill="#595959"/>
<path d="M1159.27 18.3342C1158.72 17.5894 1158.47 17.5571 1157.82 18.2292C1157.03 19.046 1156.17 19.7696 1155.18 20.3381C1153.53 21.285 1151.4 21.2762 1150.19 20.2999C1149.75 19.9459 1149.26 19.5272 1149.45 18.8969C1149.63 18.2843 1150.26 18.4804 1150.72 18.4422C1153.32 18.2262 1155.56 17.3558 1156.96 15.0265C1158.76 12.036 1157.07 8.37128 1153.75 8.12447C1152 7.99519 1150.46 8.60781 1149.14 9.77725C1147.16 11.549 1146.27 13.8321 1145.91 16.3847C1145.61 18.5135 1144.26 19.9694 1142.54 21.0822C1141.54 21.7265 1140.76 21.1645 1140.84 19.9657C1140.89 19.0732 1141.06 18.1954 1141.28 17.3249C1142.12 14.0062 1143.08 10.7204 1144.04 7.43324C1144.64 5.34854 1145.27 3.26824 1145.88 1.18721C1146 0.801565 1146.08 0.420324 1145.63 0.182324C1144.56 -0.383293 1142.97 0.253577 1142.65 1.37085C1141.54 5.20016 1140.37 9.01109 1139.36 12.8646C1138.93 14.4888 1137.95 14.8994 1136.52 15.0713C1135.67 15.1763 1135.41 14.9295 1135.29 14.0972C1135.23 13.7197 1135.19 13.3362 1135.12 12.9594C1134.54 9.73831 1131.88 8.49102 1128.98 10.0814C1128.63 10.2775 1128.27 10.5904 1127.85 10.2606C1127.45 9.93885 1127.64 9.51354 1127.76 9.12716C1128.43 7.03143 1129.09 4.93645 1129.77 2.84734C1130.35 1.04838 1130.3 0.969781 1128.42 1.00724C1127.19 1.03148 1127.1 1.09098 1126.76 2.27217C1125.68 6.05372 1124.6 9.83528 1123.51 13.6183C1123.05 15.2292 1122.23 15.8844 1120.56 15.9851C1119.72 16.0358 1119.41 15.7831 1119.36 14.967C1119.29 13.9584 1119.06 13.0013 1118.56 12.1154C1117.76 10.6852 1116.31 10.0373 1114.7 10.3678C1114.06 10.5001 1113.48 10.7887 1112.91 11.0782C1112.58 11.2456 1112.23 11.3815 1111.9 11.0936C1111.59 10.8262 1111.7 10.489 1111.8 10.168C1112.14 9.0963 1112.48 8.0253 1112.82 6.95504C1113.24 5.66367 1113.67 4.38038 1114.06 3.08313C1114.36 2.0753 1114.12 1.80278 1113.09 1.88138C1112.81 1.90195 1112.52 1.94382 1112.24 1.92398C1111.5 1.86889 1111.12 2.18402 1110.92 2.90169C1109.77 6.9308 1108.53 10.932 1107.5 14.9941C1107.33 15.6773 1106.97 16.1202 1106.34 16.4192C1105.82 16.669 1105.28 16.8122 1104.71 16.8673C1103.82 16.9532 1103.46 16.6668 1103.42 15.7801C1103.37 14.8179 1103.15 13.9158 1102.69 13.0659C1101.87 11.5454 1100.33 10.8725 1098.64 11.2985C1098.01 11.4594 1097.43 11.7393 1096.88 12.072C1096.62 12.2263 1096.35 12.3078 1096.08 12.1088C1095.82 11.917 1095.78 11.6401 1095.84 11.3514C1095.89 11.1017 1095.97 10.8571 1096.04 10.6132C1096.72 8.49469 1097.4 6.37987 1098.06 4.25697C1098.47 2.93255 1098.25 2.67104 1096.89 2.80032C1096.69 2.82016 1096.48 2.84734 1096.27 2.83852C1095.57 2.80693 1095.19 3.13602 1094.99 3.8008C1093.62 8.56301 1092.24 13.323 1091.01 18.1227C1090.4 20.4718 1088.99 22.3501 1087.18 23.9324C1086.73 24.3224 1086.15 24.6574 1085.55 24.3217C1084.95 23.9889 1084.95 23.341 1085.01 22.7504C1085.1 21.8095 1085.26 20.878 1085.49 19.9591C1086.04 17.7524 1086.73 15.5825 1087.39 13.4075C1087.65 12.5451 1087.43 12.266 1086.53 12.299C1086.17 12.3115 1085.8 12.3409 1085.44 12.338C1084.81 12.3343 1084.45 12.6164 1084.28 13.2334C1083.8 15.0331 1083.24 16.8144 1082.78 18.6207C1082.22 20.7759 1080.92 22.475 1079.45 24.0616C1078.96 24.5913 1078.31 25.2127 1077.5 24.7588C1076.71 24.3224 1076.86 23.4916 1076.99 22.7534C1077.46 20.0179 1078.51 17.4557 1079.43 14.8575C1079.84 13.7197 1079.63 13.4405 1078.4 13.4354C1077.11 13.4288 1075.82 13.4141 1074.52 13.3766C1073.88 13.3583 1073.36 13.1577 1073.26 12.4041C1073.21 11.9861 1072.91 11.8047 1072.48 11.8274C1072.15 11.8465 1071.81 11.8759 1071.48 11.8781C1070.86 11.8796 1070.54 12.1932 1070.42 12.7787C1069.46 17.5438 1067.87 22.0835 1065.36 26.2852C1065.21 26.5349 1065.08 26.8141 1065.28 27.0726C1065.69 27.6096 1066.23 28.0768 1066.89 28.187C1067.52 28.2891 1067.7 27.6361 1067.95 27.2137C1069.65 24.307 1070.86 21.1843 1071.89 17.9949C1072.56 15.9373 1072.55 15.9366 1074.71 16.1922C1075.55 16.2914 1075.79 16.644 1075.51 17.4483C1075.16 18.4642 1074.77 19.4655 1074.43 20.4806C1073.93 21.9446 1073.66 23.4409 1073.77 24.9968C1073.93 27.3018 1076 28.6218 1078.19 27.819C1079.22 27.4421 1079.97 26.7083 1080.72 25.9612C1081.52 25.1613 1081.79 25.201 1082.33 26.1574C1082.95 27.2592 1084.04 27.7756 1085.4 27.5949C1086.43 27.4583 1087.33 27.0256 1088.08 26.319C1088.66 25.7725 1089.22 25.2032 1089.75 24.6111C1090.44 23.8332 1090.73 23.8464 1091.28 24.772C1092.18 26.2962 1093.53 27.019 1095.3 27.0638C1097.04 27.1101 1098.46 26.3777 1099.69 25.2539C1101.14 23.9213 1102.06 22.2487 1102.71 20.4131C1102.85 19.9921 1103.01 19.569 1103.56 19.5463C1104.23 19.5198 1104.89 19.4162 1105.55 19.298C1106.13 19.1937 1106.44 19.4787 1106.47 20.045C1106.49 20.4784 1106.48 20.9133 1106.5 21.3474C1106.71 25.3067 1110.27 27.3459 1113.86 25.558C1116.09 24.4473 1117.41 22.5308 1118.25 20.3161C1118.7 19.1503 1119.19 18.3651 1120.58 18.5597C1120.71 18.5766 1120.84 18.5215 1120.96 18.498C1122.18 18.2821 1122.31 18.3923 1122.33 19.6131C1122.34 20.5644 1122.48 21.4943 1122.81 22.392C1123.35 23.853 1124.42 24.7411 1125.91 25.129C1127.92 25.6468 1129.63 25.0114 1131.15 23.7421C1132.48 22.6314 1133.53 21.2593 1134.06 19.6462C1134.53 18.191 1135.3 17.4505 1136.86 17.6011C1136.91 17.6077 1136.96 17.5857 1137.01 17.5813C1137.8 17.4998 1138.07 17.7422 1137.99 18.5223C1137.92 19.2319 1137.77 19.9348 1137.81 20.5578C1137.81 20.8332 1137.81 21.0125 1137.81 21.1902C1137.83 24.4657 1140.29 24.8689 1142.35 24.1571C1142.73 24.0249 1143.09 23.7957 1143.43 23.5658C1144.2 23.0399 1144.84 22.3714 1145.43 21.6559C1146.14 20.7781 1146.38 20.7693 1147.07 21.6332C1147.94 22.7203 1149.06 23.4248 1150.44 23.6628C1153.89 24.2629 1156.72 23.0303 1159.11 20.6378C1160.14 19.6124 1160.15 19.5022 1159.27 18.3342ZM1100.14 17.712C1099.82 19.7218 1099.12 21.5634 1097.62 23.0244C1097.35 23.2896 1097.04 23.5298 1096.7 23.7061C1095.35 24.4062 1094.04 23.7546 1093.82 22.273C1093.76 21.8961 1093.77 21.5105 1093.74 21.0661C1093.88 18.9549 1094.46 16.9584 1095.98 15.31C1096.38 14.8707 1096.87 14.5226 1097.43 14.3095C1098.75 13.8086 1099.81 14.3837 1100.14 15.7353C1100.3 16.4001 1100.24 17.0598 1100.14 17.712ZM1116.13 15.9204C1115.97 18.1352 1115.28 20.153 1113.81 21.866C1113.56 22.154 1113.26 22.4125 1112.94 22.619C1111.39 23.607 1109.88 23.0244 1109.71 21.2247C1109.43 18.368 1110.25 15.8183 1112.51 13.8747C1113.19 13.2885 1114.05 12.9315 1114.94 13.3634C1115.99 13.8688 1116.14 14.8729 1116.13 15.9204ZM1131.95 15.9755C1131.68 17.751 1131.01 19.3553 1129.89 20.7745C1129.57 21.1785 1129.21 21.5325 1128.75 21.7911C1127.1 22.7299 1125.7 21.9931 1125.57 20.1023C1125.55 19.8739 1125.56 19.644 1125.56 19.4148C1125.62 17.2948 1126.21 15.3497 1127.61 13.6969C1128.19 12.9998 1128.89 12.4364 1129.86 12.3372C1130.87 12.2351 1131.52 12.6714 1131.86 13.6345C1132.13 14.4058 1132.07 15.1866 1131.95 15.9755ZM1149.25 15.2145C1149.55 13.9893 1150.02 12.8345 1150.92 11.9031C1151.16 11.6475 1151.46 11.4241 1151.76 11.2434C1152.68 10.6947 1153.56 10.7013 1154.13 11.2243C1154.73 11.7701 1154.86 12.8191 1154.38 13.7123C1153.49 15.3622 1151.93 15.9425 1150.38 16.1695C1149.43 16.1731 1149.1 15.8668 1149.25 15.2145ZM1066.05 14.917C1065.75 21.0066 1063.7 26.2845 1058.59 30.0484C1055.27 32.4945 1051.45 33.2636 1047.37 32.9529C1045.5 32.8089 1043.69 32.3968 1041.97 31.6453C1040.88 31.1649 1040.79 30.9078 1041.3 29.828C1042.14 28.0467 1042.14 28.0489 1043.92 28.8246C1044.06 28.887 1044.2 28.9487 1044.35 28.9987C1045.25 29.316 1045.58 29.1662 1045.83 28.256C1046.32 26.4057 1046.78 24.545 1047.29 22.6968C1048.31 18.9784 1049.34 15.2615 1050.38 11.5476C1050.68 10.4677 1050.79 10.3958 1051.94 10.3539C1052.27 10.3421 1052.61 10.3201 1052.94 10.3069C1053.78 10.2716 1054.04 10.5625 1053.81 11.3735C1053.28 13.2422 1052.72 15.0999 1052.18 16.9672C1051.11 20.726 1050.11 24.5031 1049.16 28.2957C1048.8 29.7435 1049.12 30.066 1050.66 29.9007C1054.62 29.4769 1057.58 27.4517 1059.71 24.2438C1062.13 20.6077 1063.1 16.6161 1062.33 12.2733C1061.49 7.59411 1057.65 4.84169 1052.88 5.52043C1050.64 5.8407 1048.6 6.66635 1046.78 8.0062C1045.94 8.62765 1045.78 8.59239 1045.22 7.71311C1044.03 5.83556 1044.01 5.80324 1045.96 4.63234C1048.96 2.83485 1052.22 1.90856 1055.73 2.31624C1061.39 2.97588 1065.06 6.71263 1065.87 12.4584C1065.98 13.2716 1066.06 14.084 1066.05 14.917Z" fill="#595959"/>
</g>
<rect width="100" height="39.19" fill="url(#paint0_linear_856_166)"/>
<rect x="1140" width="100" height="39.19" fill="url(#paint1_linear_856_166)"/>
</g>
<defs>
<linearGradient id="paint0_linear_856_166" x1="0" y1="19.595" x2="100" y2="19.595" gradientUnits="userSpaceOnUse">
<stop/>
<stop offset="1" stop-opacity="0"/>
</linearGradient>
<linearGradient id="paint1_linear_856_166" x1="1240" y1="19.595" x2="1140" y2="19.595" gradientUnits="userSpaceOnUse">
<stop/>
<stop offset="1" stop-opacity="0"/>
</linearGradient>
<clipPath id="clip0_856_166">
<rect width="1240" height="39.19" fill="white"/>
</clipPath>
</defs>
</svg>
